<svg width="155" height="81" viewBox="0 0 155 81" fill="none" xmlns="http://www.w3.org/2000/svg">
<path d="M22.4062 37V12.3906H25.4648V23.1133H28.6289V26.1016H25.4648V37H22.4062ZM30.3867 26.1016V23.1133H33.5156V12.3906H36.6094V37H33.5156V26.1016H30.3867ZM39.3516 31.7969V23.1133C39.3516 22.0117 39.8438 20.9336 40.8281 19.8789C42.0469 18.6133 43.5703 17.9805 45.3984 17.9805V20.8281C44.0156 20.8281 43.0547 21.4023 42.5156 22.5508C42.3516 22.9023 42.2695 23.2539 42.2695 23.6055V31.3398C42.2695 32.207 42.668 32.9453 43.4648 33.5547C44.0273 33.9766 44.6719 34.1875 45.3984 34.1875V37.0352C43.1719 37.0352 41.4492 36.1328 40.2305 34.3281C39.6445 33.4375 39.3516 32.5938 39.3516 31.7969ZM46.9102 37.0352V34.1875C48.1523 34.1875 49.043 33.625 49.582 32.5C49.7695 32.125 49.8633 31.7617 49.8633 31.4102V23.6055C49.8633 22.6445 49.4531 21.8828 48.6328 21.3203C48.1172 20.9922 47.5312 20.8281 46.875 20.8281V17.9805C49.0312 17.9805 50.6953 18.8594 51.8672 20.6172C52.4531 21.4844 52.7461 22.3164 52.7461 23.1133V31.7969C52.7461 32.9453 52.2539 34.0586 51.2695 35.1367C50.1211 36.3789 48.668 37.0117 46.9102 37.0352ZM55.418 31.9375V18.0156H58.4062V31.5859C58.4062 32.4297 58.8281 33.1328 59.6719 33.6953C60.2344 34.0469 60.8555 34.2227 61.5352 34.2227V37.1758C59.2852 37.1758 57.5508 36.2969 56.332 34.5391C55.7227 33.6484 55.418 32.7812 55.418 31.9375ZM63.082 37.1758V34.2227C64.3477 34.2227 65.2734 33.7188 65.8594 32.7109C66.0703 32.3359 66.1758 31.9609 66.1758 31.5859V18.0156H69.1641V31.9375C69.1641 33.0391 68.6602 34.1289 67.6523 35.207C66.4336 36.4961 64.9102 37.1523 63.082 37.1758ZM71.2031 32.0078L73.9805 31.4805C73.9805 32.5352 74.5312 33.3672 75.6328 33.9766C76.1719 34.2344 76.6875 34.375 77.1797 34.3984V37.1758C74.9062 37.1758 73.207 36.3555 72.082 34.7148C71.4961 33.8477 71.2031 32.9453 71.2031 32.0078ZM71.3789 23.3594C71.3789 21.2266 72.3516 19.6445 74.2969 18.6133C75.2344 18.1211 76.1719 17.875 77.1094 17.875V20.6172C76.0312 20.6172 75.1992 21.0625 74.6133 21.9531C74.3086 22.3984 74.1562 22.8672 74.1562 23.3594C74.1562 24.1094 74.7422 24.7188 75.9141 25.1875C76.8047 25.5625 78.5273 26.0547 81.082 26.6641C82.6758 26.9922 83.8125 27.7773 84.4922 29.0195C84.8438 29.6758 85.0195 30.4141 85.0195 31.2344C85.0195 33.4844 84.1172 35.1484 82.3125 36.2266C81.2578 36.8594 80.0508 37.1758 78.6914 37.1758V34.3984C79.7695 34.3984 80.6719 34.0234 81.3984 33.2734C81.9141 32.7344 82.1719 32.1016 82.1719 31.375C82.1719 30.4375 81.2461 29.6875 79.3945 29.125C78.9258 28.9844 78.1758 28.7852 77.1445 28.5273C76.043 28.2695 75.2461 28.0586 74.7539 27.8945C72.9727 27.1914 71.8945 26.125 71.5195 24.6953C71.4258 24.2734 71.3789 23.8281 71.3789 23.3594ZM78.6562 20.6523V17.875C80.6719 17.875 82.3008 18.625 83.543 20.125C84.3164 21.0859 84.7031 22.0938 84.7031 23.1484L81.9258 23.6055C81.9258 22.3164 81.2227 21.4141 79.8164 20.8984C79.3945 20.7344 79.0078 20.6523 78.6562 20.6523ZM87.0938 31.7969V23.0781C87.1172 22 87.6328 20.9336 88.6406 19.8789C89.8594 18.6367 91.3359 18.0039 93.0703 17.9805V20.7578C91.9453 20.7578 91.0664 21.25 90.4336 22.2344C90.1758 22.6562 90.0469 23.043 90.0469 23.3945V25.7852H97.9219V23.3945C97.9219 22.3398 97.3828 21.5664 96.3047 21.0742C95.8125 20.8398 95.3086 20.7227 94.793 20.7227V17.9805C96.4102 17.9805 97.8516 18.5547 99.1172 19.7031C100.172 20.7109 100.711 21.8242 100.734 23.043V28.6328H90.0469V31.7969C90.0469 32.4531 90.4219 33.0625 91.1719 33.625C91.7812 34.0469 92.4258 34.2578 93.1055 34.2578V37C90.9727 37 89.2969 36.1328 88.0781 34.3984C87.4219 33.4844 87.0938 32.6172 87.0938 31.7969ZM94.793 37V34.2227C96.1992 34.2227 97.2539 33.6133 97.957 32.3945C98.0977 32.1367 98.2031 31.8906 98.2734 31.6562L100.77 32.5703C100.348 34.1875 99.3867 35.4062 97.8867 36.2266C96.9258 36.7422 95.8945 37 94.793 37ZM102.492 12.3906H105.586L111.844 33.7656L110.719 37H109.629L102.492 12.3906ZM111.07 25.4336L115.43 12.3906H118.523C118.312 13.0703 117.434 15.7891 115.887 20.5469C114.082 26.0781 113.051 29.2539 112.793 30.0742H112.441L111.07 25.4336ZM120.211 30.1445V18.5781C120.211 17.3359 120.738 16.0703 121.793 14.7812C123.199 13.0938 124.98 12.2383 127.137 12.2148V15.2734C125.707 15.2734 124.594 16 123.797 17.4531C123.469 18.0859 123.305 18.6484 123.305 19.1406V30.1445C123.305 31.6211 124.031 32.7695 125.484 33.5898C126.094 33.9414 126.633 34.1172 127.102 34.1172V37.1758C125.766 37.1758 124.43 36.6953 123.094 35.7344C121.195 34.3281 120.234 32.4648 120.211 30.1445ZM129.035 37.1758V34.1172C129.855 34.1172 130.688 33.7539 131.531 33.0273C132.422 32.2305 132.879 31.2695 132.902 30.1445V19.1406C132.902 18.2266 132.527 17.3477 131.777 16.5039C131.004 15.707 130.09 15.2969 129.035 15.2734V12.2148C131.402 12.2148 133.301 13.2344 134.73 15.2734C135.551 16.4453 135.961 17.5469 135.961 18.5781V30.1445C135.961 32.7461 134.801 34.7383 132.48 36.1211C131.262 36.8242 130.113 37.1758 129.035 37.1758ZM138.809 37H141.867V12.3906H138.809V37ZM143.625 25.9961H147.422C150.492 25.9727 152.414 24.8008 153.188 22.4805C153.492 21.543 153.645 20.4297 153.645 19.1406C153.645 14.8516 151.711 12.6016 147.844 12.3906C147.703 12.3906 147.562 12.3906 147.422 12.3906H143.625V15.3438H146.93C149.297 15.3906 150.492 16.6562 150.516 19.1406C150.469 21.6953 149.285 22.9844 146.965 23.0078H143.625V25.9961Z" fill="white"/>
<path d="M23.892 58.584L21.348 54.48H22.308L24.612 58.26H26.208V54.48H27.132V58.26H28.728L31.02 54.48H31.992L29.436 58.584L32.304 63H31.332L28.848 59.004H27.132V63H26.208V59.004H24.492L22.008 63H21.036L23.892 58.584ZM35.7038 61.74L40.9838 54.48H41.6798V63H40.8398V55.86L35.6438 63H34.8758V54.48H35.7038V61.74ZM47.2123 56.736C47.1163 57.864 46.9923 58.828 46.8403 59.628C46.6963 60.428 46.5123 61.084 46.2883 61.596C46.0723 62.1 45.8083 62.472 45.4963 62.712C45.1923 62.944 44.8323 63.06 44.4163 63.06L44.2723 62.256C44.4323 62.248 44.5843 62.216 44.7283 62.16C44.8803 62.104 45.0243 62.004 45.1603 61.86C45.2963 61.708 45.4243 61.504 45.5443 61.248C45.6643 60.984 45.7763 60.648 45.8803 60.24C45.9843 59.824 46.0763 59.324 46.1563 58.74C46.2443 58.156 46.3203 57.464 46.3843 56.664L46.5643 54.48H50.8963V63H50.0683V55.224H47.3323L47.2123 56.736ZM57.957 63.06C57.365 63.06 56.821 62.94 56.325 62.7C55.837 62.452 55.417 62.128 55.065 61.728C54.713 61.32 54.441 60.856 54.249 60.336C54.057 59.816 53.961 59.284 53.961 58.74C53.961 58.172 54.061 57.628 54.261 57.108C54.469 56.588 54.753 56.128 55.113 55.728C55.473 55.328 55.897 55.012 56.385 54.78C56.873 54.54 57.401 54.42 57.969 54.42C58.561 54.42 59.101 54.548 59.589 54.804C60.085 55.052 60.505 55.38 60.849 55.788C61.201 56.196 61.473 56.66 61.665 57.18C61.857 57.692 61.953 58.216 61.953 58.752C61.953 59.32 61.849 59.864 61.641 60.384C61.441 60.904 61.161 61.364 60.801 61.764C60.449 62.156 60.029 62.472 59.541 62.712C59.053 62.944 58.525 63.06 57.957 63.06ZM54.801 58.74C54.801 59.204 54.877 59.652 55.029 60.084C55.181 60.508 55.397 60.888 55.677 61.224C55.957 61.552 56.289 61.816 56.673 62.016C57.057 62.208 57.485 62.304 57.957 62.304C58.437 62.304 58.873 62.2 59.265 61.992C59.657 61.784 59.989 61.512 60.261 61.176C60.533 60.84 60.741 60.46 60.885 60.036C61.037 59.612 61.113 59.18 61.113 58.74C61.113 58.276 61.033 57.832 60.873 57.408C60.721 56.976 60.505 56.596 60.225 56.268C59.945 55.94 59.613 55.68 59.229 55.488C58.845 55.288 58.421 55.188 57.957 55.188C57.477 55.188 57.041 55.292 56.649 55.5C56.257 55.7 55.925 55.968 55.653 56.304C55.381 56.64 55.169 57.02 55.017 57.444C54.873 57.868 54.801 58.3 54.801 58.74ZM70.2567 52.008C70.2407 52.392 70.0767 52.7 69.7647 52.932C69.4607 53.156 69.0367 53.268 68.4927 53.268C67.9487 53.268 67.5207 53.156 67.2087 52.932C66.9047 52.7 66.7447 52.392 66.7287 52.008H67.2447C67.2447 52.112 67.2767 52.212 67.3407 52.308C67.4047 52.404 67.4927 52.488 67.6047 52.56C67.7167 52.632 67.8487 52.692 68.0007 52.74C68.1527 52.78 68.3207 52.8 68.5047 52.8C68.8487 52.8 69.1327 52.728 69.3567 52.584C69.5887 52.432 69.7207 52.24 69.7527 52.008H70.2567ZM65.8167 61.74L71.0967 54.48H71.7927V63H70.9527V55.86L65.7567 63H64.9887V54.48H65.8167V61.74ZM80.7319 58.26H82.0279L84.8119 54.48H85.7719L82.7839 58.584L86.0839 63H85.1239L82.0999 59.004H80.7319V63H79.9039V54.48H80.7319V58.26ZM91.6545 63.06C91.0625 63.06 90.5185 62.94 90.0225 62.7C89.5345 62.452 89.1145 62.128 88.7625 61.728C88.4105 61.32 88.1385 60.856 87.9465 60.336C87.7545 59.816 87.6585 59.284 87.6585 58.74C87.6585 58.172 87.7585 57.628 87.9585 57.108C88.1665 56.588 88.4505 56.128 88.8105 55.728C89.1705 55.328 89.5945 55.012 90.0825 54.78C90.5705 54.54 91.0985 54.42 91.6665 54.42C92.2585 54.42 92.7985 54.548 93.2865 54.804C93.7825 55.052 94.2025 55.38 94.5465 55.788C94.8985 56.196 95.1705 56.66 95.3625 57.18C95.5545 57.692 95.6505 58.216 95.6505 58.752C95.6505 59.32 95.5465 59.864 95.3385 60.384C95.1385 60.904 94.8585 61.364 94.4985 61.764C94.1465 62.156 93.7265 62.472 93.2385 62.712C92.7505 62.944 92.2225 63.06 91.6545 63.06ZM88.4985 58.74C88.4985 59.204 88.5745 59.652 88.7265 60.084C88.8785 60.508 89.0945 60.888 89.3745 61.224C89.6545 61.552 89.9865 61.816 90.3705 62.016C90.7545 62.208 91.1825 62.304 91.6545 62.304C92.1345 62.304 92.5705 62.2 92.9625 61.992C93.3545 61.784 93.6865 61.512 93.9585 61.176C94.2305 60.84 94.4385 60.46 94.5825 60.036C94.7345 59.612 94.8105 59.18 94.8105 58.74C94.8105 58.276 94.7305 57.832 94.5705 57.408C94.4185 56.976 94.2025 56.596 93.9225 56.268C93.6425 55.94 93.3105 55.68 92.9265 55.488C92.5425 55.288 92.1185 55.188 91.6545 55.188C91.1745 55.188 90.7385 55.292 90.3465 55.5C89.9545 55.7 89.6225 55.968 89.3505 56.304C89.0785 56.64 88.8665 57.02 88.7145 57.444C88.5705 57.868 88.4985 58.3 88.4985 58.74ZM106.222 63V56.004L103.114 61.416H102.622L99.5142 56.004V63H98.6742V54.48H99.5382L102.862 60.312L106.21 54.48H107.062V63H106.222ZM110.685 54.48H117.261V63H116.421V55.224H111.513V63H110.685V54.48ZM122.787 56.736C122.691 57.864 122.567 58.828 122.415 59.628C122.271 60.428 122.087 61.084 121.863 61.596C121.647 62.1 121.383 62.472 121.071 62.712C120.767 62.944 120.407 63.06 119.991 63.06L119.847 62.256C120.007 62.248 120.159 62.216 120.303 62.16C120.455 62.104 120.599 62.004 120.735 61.86C120.871 61.708 120.999 61.504 121.119 61.248C121.239 60.984 121.351 60.648 121.455 60.24C121.559 59.824 121.651 59.324 121.731 58.74C121.819 58.156 121.895 57.464 121.959 56.664L122.139 54.48H126.471V63H125.643V55.224H122.907L122.787 56.736ZM135.824 62.256V63H130.1V54.48H135.716V55.224H130.94V58.296H135.104V59.004H130.94V62.256H135.824ZM139.692 58.26H140.988L143.772 54.48H144.732L141.744 58.584L145.044 63H144.084L141.06 59.004H139.692V63H138.864V54.48H139.692V58.26ZM146.607 58.68C146.607 58.168 146.695 57.66 146.871 57.156C147.055 56.644 147.319 56.188 147.663 55.788C148.007 55.388 148.431 55.064 148.935 54.816C149.439 54.56 150.011 54.432 150.651 54.432C151.411 54.432 152.059 54.604 152.595 54.948C153.139 55.292 153.539 55.74 153.795 56.292L153.135 56.7C152.999 56.42 152.831 56.184 152.631 55.992C152.439 55.8 152.231 55.644 152.007 55.524C151.783 55.404 151.551 55.32 151.311 55.272C151.071 55.216 150.835 55.188 150.603 55.188C150.091 55.188 149.639 55.292 149.247 55.5C148.855 55.708 148.523 55.98 148.251 56.316C147.987 56.652 147.787 57.032 147.651 57.456C147.515 57.872 147.447 58.296 147.447 58.728C147.447 59.2 147.527 59.652 147.687 60.084C147.855 60.516 148.079 60.9 148.359 61.236C148.647 61.564 148.983 61.828 149.367 62.028C149.759 62.22 150.183 62.316 150.639 62.316C150.879 62.316 151.123 62.288 151.371 62.232C151.627 62.168 151.871 62.072 152.103 61.944C152.343 61.808 152.563 61.644 152.763 61.452C152.963 61.252 153.131 61.012 153.267 60.732L153.963 61.092C153.827 61.412 153.635 61.696 153.387 61.944C153.139 62.184 152.863 62.388 152.559 62.556C152.255 62.724 151.931 62.852 151.587 62.94C151.251 63.028 150.919 63.072 150.591 63.072C150.007 63.072 149.471 62.944 148.983 62.688C148.495 62.432 148.075 62.1 147.723 61.692C147.371 61.276 147.095 60.808 146.895 60.288C146.703 59.76 146.607 59.224 146.607 58.68Z" fill="white"/>
</svg>
